<?xml version="1.0" encoding="UTF-8"?>
<svg id="Layer_2" data-name="Layer 2" xmlns="http://www.w3.org/2000/svg" viewBox="0 0 83.1 164.73">
  <defs>
    <style>
      .cls-1 {
        fill: none;
      }

      .cls-1, .cls-2 {
        stroke: #fff;
        stroke-miterlimit: 10;
      }

      .cls-2 {
        fill: #fff;
        stroke-width: .5px;
      }
    </style>
  </defs>
  <g id="Layer_1-2" data-name="Layer 1">
    <path class="cls-2" d="M36.87,64.74c1.86-.76,2.71,1.32,3.71,2.11.42.33,1.97-3.27,5.4-1.87,1.76.72,3.13,1.9,4.58,3.16,2.91,2.53,5.89,4.95,4.27,8,.79.41,1.45,1.11,1.44,2.08,3.71,2.93,7.15,6.14,10.43,9.52l.62.8,2.15,2.97c5.32-1.61,8.05-2.6,10.38-7.51,3.89-8.16,1.56-18.99-3.82-26-3.09-4.02-7.35-7.16-12.68-7.45l3.81,2.42c.19.12.42.57.39.76s-.46.3-.81.41c-3.86-.55-7.51-1.42-10.9-3.22-1.61.61-2.97.49-3.49-.73-.12-.27.75-.88,1.07-.79l2.78.77c.87.24,2.36-.2,3.68-.61-4.74-1.97-9.74-3.36-15.54-4.13,2.49,3.17,4.86,5.78,5.68,9.64.41,1.91.04,4.38-.55,4.52l-1.81.41-.66,1c-.19.28-1.3.1-1.58-.16l-3.07-2.81-3.62-3.68c-.82,2.59-1.78,6.36-2.96,6.36-1.05,0-1.83-4.61,1.14-7.26.25-.23,1.04-.14,1.48-.06l-.27-1.26c-.07-.34-1.13-.08-1.39.17l-2.18,2.18-1.07,7.25c-.03.23-.32.71-.49.85-.21.18-.92-.19-1.08-.42-.84-1.26-.67-2.86-.08-4.22.64-1.23,1.33-2.33,2.11-3.37.89-5.6,2.89-9.5,9.19-9.55-2.9-3-6.58-6.52-10.14-7.23-3.23-.65-6.46-.56-9.5,1.63.8.25,2.38.66,3.35.39,2.12-.58,4.12-.76,5.83.95l-5.8-.2c-3.11.89-8.12,6.79-10.1,9.84l-1.59,2.45c3.62-1.86,7.21-2.37,11.17-1.8,2.19-.74,4.57-1.05,6.64.59-.46.11-1.41.32-1.83.31l-5.68-.17c-2.5,1.33-4.72,3.07-6.96,4.8-4.04,3.11-9.84,6.69-14.58,5.64-5.49-1.22-3.77-9.48-1.65-14.74,2.31-5.74,5.76-10.62,10.32-14.81,7.22-6.64,17.77-9.33,27.33-7.45l7.05,1.91c2.54.69,6.19.51,7.42-1.16,1.64-2.23-1.32-6.45-3.4-9.29l-5.86-8.01c-.32-.44-.55-.78-.76-1.26-.98-2.22-3.02-3.81-3.08-6.43l2.03,3.58c3.97,7.01,9.65,12.07,12.09,18.51.3.8,0,2.6-.52,3.23-3.1,3.82-9.9.97-14.49.02-7.66-1.6-15.46-.35-22.21,3.5-3.4,1.94-6.11,4.42-8.54,7.43-4.23,5.25-6.27,8.93-7.98,15.53-.54,2.09-.83,4.58,0,6.57.92,2.22,3.58,2.64,5.73,2.14,3.74-.86,7.02-2.72,10.12-4.96l6.43-4.64c-5.2-.43-8.53,1.26-11.28,4.28.83-1.49,1.43-2.69,2.22-3.79,3.13-4.37,6.59-8.7,10.75-11.99-1.19-.4-2.9-.81-3.94-.3l-9.16,4.45c-1.07.52-3.1.82-4.02.32-1-1.36.26-2.89,1.54-3.67,2.92-1.78,6.4-2.2,9.88-1.98,1.32.08,2.53.13,3.72-.54,4.12-2.33,9.18-2.33,13.12.34,2.66,1.8,4.85,3.86,7.17,6.13,5.87.3,11.44,1.87,16.76,4.54,6.13-.12,11.58,2.79,15.58,7.48,7.06,8.45,9.52,22.89,1.99,31.33-2.02,2.26-4.9,3.05-7.9,4.02l1.81,2.92c1.58,2.55,2.54,5.79,1.29,8.72s-3.81,5.11-6.76,5.98l-4.87,1.44-10.37,1.63c-13.65,3.07-23.73,13.88-25.01,28.03-.3,3.25-.39,6.36.17,9.51l1.31,7.44,1.56,6.18s-.52.21-.56.08l-.27-.82c-1.86-5.64-3.02-11.28-3.32-17.25-.4-7.98,1.64-15.6,6.38-21.99,4.13-5.57,10.52-9.8,17.15-11.79,4.12-1.24,8.31-1.43,12.56-2.18l3.31-.84c2.8-.71,5.39-2.12,7.07-4.44s1.8-5,.53-7.38l-2.71-5.07-2.83.41c-9.36,1.35-19.06,1.35-27.92,3.39l-4.25.98c-5.58,1.28-10.74,3.52-15.2,7.14-3.64,2.95-7,5.31-11.3,3.31-2.28-2.2-2.46-7.43-1.75-10.73s1.76-6.67,3.45-9.65c3.78-6.65,10.95-6.54,17.96-6.94l.35-2.47-2.4.66c-.34-.93-.31-2.16.27-3.06,2.05-3.24,4.55-5.92,7.39-8.45,1.03-.92,2.18-1.99,3.51-2.53ZM14.41,42.71l5.89-2.84c-3.24-.77-5.93.05-8.75,1.09-1.65.61-3.38,2.7-2.73,3.28.88.8,3.64-.47,5.6-1.52ZM43.56,54.56c-.12-.31.17-1.17.38-1.41.17-.2.85-.27,1.07-.05,2.45,2.47,2.04,6.83,3.66,6.12,1.04-.46,1.1-2.71.61-4.44-1.01-3.62-2.96-6.62-5.54-9.23-4.44-.39-7.86,2.34-8.75,6.67-.06,0-.02,1.02.13.9l.66-.5c.89-.68,1.56-1.08,2.62-.9l.21,1.88,3.31,3.37,3.66,3.64c.28.28,1.38.17,1.54-.17.6-1.26-2.07-2.08-3.58-5.87ZM66.73,53.6c-1.09-1.47-2.54-1.76-3.88-2.57-1.56-.94-3.13-1.21-5.24-.15,2.9,1.05,5.71,2.03,9.12,2.73ZM46.99,58.55c-.27-1.82-.85-4.05-2.74-5.15-.29,2.18.79,3.96,2.74,5.15ZM38.15,54.09c.16-1.91-4.08,1.9-2.59,5.95.38,1.04,2.28-2.3,2.59-5.95ZM33.28,61.14l.43-4.95c-2.91,2.27-1.42,6.76-.94,5.97.1-.16.49-.78.51-1.02ZM54.53,75.77c1.17-2.24-.94-4.57-3.19-6.36-3.21-2.55-7.1-6.09-9.88-2.54-.18.23-.92.57-1.1.4l-.81-.74c-.46-.42-1-.89-1.4-1.06s-1.51.2-1.89.54l-5.82,5.22c-1.92,1.72-5.53,5.75-4.39,7.12l3.5-1.69c5.09-2.45,9.04-5.23,15.67-4.18,4.71.75,8.57,4.71,9.31,3.29ZM30.83,76.77c6.62-1.77,12.99-2.02,20.05-1.33-3.63-3.1-9.64-3.18-13.9-1.61-2.19.81-4.23,1.51-6.15,2.94ZM41.1,79.97c1.87-.19,4.1.1,5.89-.54l5.38-1.93.86-.44c.14-.07.01-.38-.13-.73-4-.15-7.81-.19-11.74.04-4.46.25-9.41.2-12.96,2.59-.36.24-.11,1.64.33,1.61l3.84-.19c2.91-.14,5.62-.11,8.52-.41ZM55.29,78.3l-1.54-1.18-3.11,1.82c2.01.06,2.82-.13,4.65-.64ZM14.02,107.26c2.35-1.15,3.92-2.55,5.87-3.94,5.84-4.19,14.73-7.03,21.78-8.09l9.62-1.45,7.05-.77c3.4-.33,6.61-.72,10.22-1.53-3.6-5.14-7.83-9.28-12.75-12.91-3.58,1.06-6.99,1.29-10.54,1.87-2.83.47-5.49,1.42-8.42,1.16l-3.01.14c-1.79.09-3.47.07-5.16-.64-7.5.3-14.87-.03-18.56,7.09-2.7,5.19-5.08,13.99-1.81,18.6,1.11,1.57,4.14,1.23,5.71.46ZM38.47,81.25c.3,0,1.28-.44,1.37-.52l-1.78.18-6.17.07-.14.26,6.72.02Z"/>
    <path class="cls-1" d="M14.02,107.26c-1.57.77-4.6,1.1-5.71-.46-3.27-4.6-.89-13.4,1.81-18.6,3.7-7.12,11.07-6.8,18.56-7.09,1.7.71,3.37.73,5.16.64l3.01-.14c2.93.25,5.59-.7,8.42-1.16,3.55-.59,6.96-.81,10.54-1.87,4.92,3.63,9.15,7.78,12.75,12.91-3.61.81-6.82,1.19-10.22,1.53l-7.05.77-9.62,1.45c-7.05,1.06-15.94,3.91-21.78,8.09-1.95,1.4-3.51,2.79-5.87,3.94Z"/>
    <path class="cls-1" d="M54.53,75.77c-.74,1.41-4.61-2.54-9.31-3.29-6.63-1.05-10.58,1.72-15.67,4.18l-3.5,1.69c-1.14-1.37,2.47-5.4,4.39-7.12l5.82-5.22c.38-.34,1.49-.72,1.89-.54s.94.65,1.4,1.06l.81.74c.19.17.92-.17,1.1-.4,2.78-3.54,6.67,0,9.88,2.54,2.25,1.79,4.35,4.12,3.19,6.36Z"/>
    <path class="cls-1" d="M43.56,54.56c1.51,3.79,4.17,4.61,3.58,5.87-.16.34-1.26.45-1.54.17l-3.66-3.64-3.31-3.37-.21-1.88c-1.06-.18-1.73.22-2.62.9l-.66.5c-.15.12-.19-.89-.13-.9.9-4.33,4.32-7.07,8.75-6.67,2.58,2.61,4.52,5.61,5.54,9.23.49,1.74.43,3.99-.61,4.44-1.63.72-1.22-3.65-3.66-6.12-.22-.23-.9-.15-1.07.05-.2.24-.5,1.1-.38,1.41Z"/>
    <path class="cls-1" d="M41.1,79.97c-2.9.3-5.61.26-8.52.41l-3.84.19c-.44.02-.69-1.37-.33-1.61,3.54-2.39,8.5-2.34,12.96-2.59,3.93-.22,7.74-.19,11.74-.04.14.35.26.66.13.73l-.86.44-5.38,1.93c-1.79.64-4.02.35-5.89.54Z"/>
    <path class="cls-1" d="M30.83,76.77c1.92-1.42,3.96-2.13,6.15-2.94,4.26-1.57,10.27-1.49,13.9,1.61-7.06-.7-13.43-.44-20.05,1.33Z"/>
    <path class="cls-1" d="M14.41,42.71c-1.96,1.05-4.72,2.32-5.6,1.52-.64-.58,1.09-2.67,2.73-3.28,2.82-1.04,5.52-1.86,8.75-1.09l-5.89,2.84Z"/>
    <path class="cls-1" d="M38.15,54.09c-.31,3.65-2.21,6.98-2.59,5.95-1.49-4.05,2.75-7.85,2.59-5.95Z"/>
    <path class="cls-1" d="M66.73,53.6c-3.42-.7-6.23-1.68-9.12-2.73,2.11-1.06,3.68-.79,5.24.15,1.34.81,2.79,1.1,3.88,2.57Z"/>
    <path class="cls-1" d="M33.28,61.14c-.02.24-.41.86-.51,1.02-.48.79-1.97-3.7.94-5.97l-.43,4.95Z"/>
    <path class="cls-1" d="M46.99,58.55c-1.94-1.19-3.03-2.97-2.74-5.15,1.89,1.1,2.47,3.33,2.74,5.15Z"/>
    <path class="cls-1" d="M55.29,78.3c-1.83.51-2.64.71-4.65.64l3.11-1.82,1.54,1.18Z"/>
    <path class="cls-1" d="M38.47,81.25l-6.72-.02.14-.26,6.17-.07,1.78-.18c-.09.08-1.07.52-1.37.52Z"/>
  </g>
</svg>